<mxfile host="app.diagrams.net" agent="Mozilla/5.0 (Windows NT 10.0; Win64; x64) AppleWebKit/537.36 (KHTML, like Gecko) Chrome/136.0.0.0 Safari/537.36" version="27.1.1">
  <diagram name="Page-1" id="uRwhAg91QgvnQsg3Y2HB">
    <mxGraphModel dx="3135" dy="1195" grid="1" gridSize="10" guides="1" tooltips="1" connect="1" arrows="1" fold="1" page="1" pageScale="1" pageWidth="827" pageHeight="1169" math="0" shadow="0">
      <root>
        <mxCell id="0" />
        <mxCell id="1" parent="0" />
        <mxCell id="SQr1-za56z7L4GqFjBIs-3" value="" style="rounded=0;orthogonalLoop=1;jettySize=auto;html=1;endArrow=none;startFill=0;" edge="1" parent="1" source="SQr1-za56z7L4GqFjBIs-1" target="SQr1-za56z7L4GqFjBIs-2">
          <mxGeometry relative="1" as="geometry" />
        </mxCell>
        <mxCell id="SQr1-za56z7L4GqFjBIs-7" style="rounded=0;orthogonalLoop=1;jettySize=auto;html=1;endArrow=none;startFill=0;" edge="1" parent="1" source="SQr1-za56z7L4GqFjBIs-1" target="SQr1-za56z7L4GqFjBIs-6">
          <mxGeometry relative="1" as="geometry" />
        </mxCell>
        <mxCell id="SQr1-za56z7L4GqFjBIs-9" style="rounded=0;orthogonalLoop=1;jettySize=auto;html=1;endArrow=none;startFill=0;" edge="1" parent="1" source="SQr1-za56z7L4GqFjBIs-1" target="SQr1-za56z7L4GqFjBIs-8">
          <mxGeometry relative="1" as="geometry" />
        </mxCell>
        <mxCell id="SQr1-za56z7L4GqFjBIs-11" style="rounded=0;orthogonalLoop=1;jettySize=auto;html=1;strokeColor=default;endArrow=none;startFill=0;" edge="1" parent="1" source="SQr1-za56z7L4GqFjBIs-1" target="SQr1-za56z7L4GqFjBIs-10">
          <mxGeometry relative="1" as="geometry" />
        </mxCell>
        <mxCell id="SQr1-za56z7L4GqFjBIs-13" style="rounded=0;orthogonalLoop=1;jettySize=auto;html=1;endArrow=none;startFill=0;" edge="1" parent="1" source="SQr1-za56z7L4GqFjBIs-1" target="SQr1-za56z7L4GqFjBIs-12">
          <mxGeometry relative="1" as="geometry" />
        </mxCell>
        <mxCell id="SQr1-za56z7L4GqFjBIs-15" style="rounded=0;orthogonalLoop=1;jettySize=auto;html=1;endArrow=none;startFill=0;" edge="1" parent="1" source="SQr1-za56z7L4GqFjBIs-1" target="SQr1-za56z7L4GqFjBIs-14">
          <mxGeometry relative="1" as="geometry" />
        </mxCell>
        <mxCell id="SQr1-za56z7L4GqFjBIs-1" value="Usuário" style="rounded=0;whiteSpace=wrap;html=1;fillColor=#dae8fc;strokeColor=#6c8ebf;" vertex="1" parent="1">
          <mxGeometry x="350" y="340" width="120" height="60" as="geometry" />
        </mxCell>
        <mxCell id="SQr1-za56z7L4GqFjBIs-2" value="ID_usuario: INT &amp;lt;&amp;lt;PK&amp;gt;&amp;gt;" style="ellipse;whiteSpace=wrap;html=1;fillColor=#e1d5e7;strokeColor=#9673a6;rounded=0;" vertex="1" parent="1">
          <mxGeometry x="400" y="225" width="150" height="40" as="geometry" />
        </mxCell>
        <mxCell id="SQr1-za56z7L4GqFjBIs-6" value="Email: VARCHAR(255)" style="ellipse;whiteSpace=wrap;html=1;fillColor=#e1d5e7;strokeColor=#9673a6;rounded=0;" vertex="1" parent="1">
          <mxGeometry x="284" y="185" width="130" height="40" as="geometry" />
        </mxCell>
        <mxCell id="SQr1-za56z7L4GqFjBIs-8" value="Senha: VARCHAR(255)" style="ellipse;whiteSpace=wrap;html=1;fillColor=#e1d5e7;strokeColor=#9673a6;rounded=0;" vertex="1" parent="1">
          <mxGeometry x="211.5" y="240" width="150" height="40" as="geometry" />
        </mxCell>
        <mxCell id="SQr1-za56z7L4GqFjBIs-10" value="Cargo: VARCHAR(45)" style="ellipse;whiteSpace=wrap;html=1;fillColor=#e1d5e7;strokeColor=#9673a6;rounded=0;" vertex="1" parent="1">
          <mxGeometry x="161.5" y="300" width="150" height="40" as="geometry" />
        </mxCell>
        <mxCell id="SQr1-za56z7L4GqFjBIs-12" value="Foto de Perfil: VARCHAR(255)" style="ellipse;whiteSpace=wrap;html=1;fillColor=#e1d5e7;strokeColor=#9673a6;rounded=0;" vertex="1" parent="1">
          <mxGeometry x="141.5" y="360" width="190" height="40" as="geometry" />
        </mxCell>
        <mxCell id="SQr1-za56z7L4GqFjBIs-14" value="Rota: VARCHAR(45)" style="ellipse;whiteSpace=wrap;html=1;fillColor=#e1d5e7;strokeColor=#9673a6;rounded=0;" vertex="1" parent="1">
          <mxGeometry x="181.5" y="430" width="150" height="40" as="geometry" />
        </mxCell>
        <mxCell id="SQr1-za56z7L4GqFjBIs-16" value="é administrador" style="rhombus;whiteSpace=wrap;html=1;fillColor=#d5e8d4;strokeColor=#82b366;" vertex="1" parent="1">
          <mxGeometry x="500" y="330" width="200" height="80" as="geometry" />
        </mxCell>
        <mxCell id="SQr1-za56z7L4GqFjBIs-23" style="rounded=0;orthogonalLoop=1;jettySize=auto;html=1;endArrow=none;startFill=0;" edge="1" parent="1" source="SQr1-za56z7L4GqFjBIs-18" target="SQr1-za56z7L4GqFjBIs-19">
          <mxGeometry relative="1" as="geometry" />
        </mxCell>
        <mxCell id="SQr1-za56z7L4GqFjBIs-24" style="rounded=0;orthogonalLoop=1;jettySize=auto;html=1;endArrow=none;startFill=0;" edge="1" parent="1" source="SQr1-za56z7L4GqFjBIs-18" target="SQr1-za56z7L4GqFjBIs-21">
          <mxGeometry relative="1" as="geometry" />
        </mxCell>
        <mxCell id="SQr1-za56z7L4GqFjBIs-25" style="rounded=0;orthogonalLoop=1;jettySize=auto;html=1;endArrow=none;startFill=0;" edge="1" parent="1" source="SQr1-za56z7L4GqFjBIs-18" target="SQr1-za56z7L4GqFjBIs-20">
          <mxGeometry relative="1" as="geometry" />
        </mxCell>
        <mxCell id="SQr1-za56z7L4GqFjBIs-26" style="rounded=0;orthogonalLoop=1;jettySize=auto;html=1;endArrow=none;startFill=0;" edge="1" parent="1" source="SQr1-za56z7L4GqFjBIs-18" target="SQr1-za56z7L4GqFjBIs-22">
          <mxGeometry relative="1" as="geometry" />
        </mxCell>
        <mxCell id="SQr1-za56z7L4GqFjBIs-18" value="Time" style="rounded=0;whiteSpace=wrap;html=1;fillColor=#dae8fc;strokeColor=#6c8ebf;" vertex="1" parent="1">
          <mxGeometry x="754.5" y="340" width="120" height="60" as="geometry" />
        </mxCell>
        <mxCell id="SQr1-za56z7L4GqFjBIs-19" value="ID_Time: INT &amp;lt;&amp;lt;PK&amp;gt;&amp;gt;" style="ellipse;whiteSpace=wrap;html=1;fillColor=#e1d5e7;strokeColor=#9673a6;rounded=0;" vertex="1" parent="1">
          <mxGeometry x="631.5" y="275" width="150" height="40" as="geometry" />
        </mxCell>
        <mxCell id="SQr1-za56z7L4GqFjBIs-20" value="Icone: VARCHAR(255)" style="ellipse;whiteSpace=wrap;html=1;fillColor=#e1d5e7;strokeColor=#9673a6;rounded=0;" vertex="1" parent="1">
          <mxGeometry x="864.5" y="235" width="190" height="40" as="geometry" />
        </mxCell>
        <mxCell id="SQr1-za56z7L4GqFjBIs-21" value="Nome: VARCHAR(255)" style="ellipse;whiteSpace=wrap;html=1;fillColor=#e1d5e7;strokeColor=#9673a6;rounded=0;" vertex="1" parent="1">
          <mxGeometry x="694.5" y="225" width="150" height="40" as="geometry" />
        </mxCell>
        <mxCell id="SQr1-za56z7L4GqFjBIs-22" value="ID_Administrador: INT &amp;lt;&amp;lt;FK&amp;gt;&amp;gt;" style="ellipse;whiteSpace=wrap;html=1;fillColor=#e1d5e7;strokeColor=#9673a6;rounded=0;" vertex="1" parent="1">
          <mxGeometry x="924.5" y="295" width="185.5" height="40" as="geometry" />
        </mxCell>
        <mxCell id="SQr1-za56z7L4GqFjBIs-27" value="" style="endArrow=none;html=1;rounded=0;exitX=1;exitY=0.5;exitDx=0;exitDy=0;entryX=0;entryY=0.5;entryDx=0;entryDy=0;startArrow=ERone;startFill=0;targetPerimeterSpacing=0;strokeWidth=1;" edge="1" parent="1" source="SQr1-za56z7L4GqFjBIs-1" target="SQr1-za56z7L4GqFjBIs-16">
          <mxGeometry relative="1" as="geometry">
            <mxPoint x="480" y="430" as="sourcePoint" />
            <mxPoint x="640" y="430" as="targetPoint" />
          </mxGeometry>
        </mxCell>
        <mxCell id="SQr1-za56z7L4GqFjBIs-28" value="" style="endArrow=none;html=1;rounded=0;exitX=0;exitY=0.5;exitDx=0;exitDy=0;entryX=1;entryY=0.5;entryDx=0;entryDy=0;startArrow=ERmandOne;startFill=0;targetPerimeterSpacing=0;strokeWidth=1;" edge="1" parent="1" source="SQr1-za56z7L4GqFjBIs-18" target="SQr1-za56z7L4GqFjBIs-16">
          <mxGeometry relative="1" as="geometry">
            <mxPoint x="480" y="380" as="sourcePoint" />
            <mxPoint x="560" y="380" as="targetPoint" />
          </mxGeometry>
        </mxCell>
        <mxCell id="SQr1-za56z7L4GqFjBIs-29" value="" style="endArrow=ERoneToMany;html=1;rounded=0;exitX=1;exitY=0.5;exitDx=0;exitDy=0;entryX=0.5;entryY=1;entryDx=0;entryDy=0;edgeStyle=orthogonalEdgeStyle;startArrow=none;startFill=0;endFill=0;" edge="1" parent="1" source="SQr1-za56z7L4GqFjBIs-31" target="SQr1-za56z7L4GqFjBIs-18">
          <mxGeometry relative="1" as="geometry">
            <mxPoint x="690" y="390" as="sourcePoint" />
            <mxPoint x="850" y="390" as="targetPoint" />
            <Array as="points">
              <mxPoint x="815" y="475" />
            </Array>
          </mxGeometry>
        </mxCell>
        <mxCell id="SQr1-za56z7L4GqFjBIs-32" value="" style="endArrow=none;html=1;rounded=0;exitX=0.5;exitY=1;exitDx=0;exitDy=0;entryX=0;entryY=0.5;entryDx=0;entryDy=0;edgeStyle=orthogonalEdgeStyle;startArrow=ERone;startFill=0;endFill=0;" edge="1" parent="1" source="SQr1-za56z7L4GqFjBIs-1" target="SQr1-za56z7L4GqFjBIs-31">
          <mxGeometry relative="1" as="geometry">
            <mxPoint x="410" y="400" as="sourcePoint" />
            <mxPoint x="1103" y="400" as="targetPoint" />
            <Array as="points">
              <mxPoint x="410" y="475" />
            </Array>
          </mxGeometry>
        </mxCell>
        <mxCell id="SQr1-za56z7L4GqFjBIs-31" value="participa de" style="rhombus;whiteSpace=wrap;html=1;fillColor=#d5e8d4;strokeColor=#82b366;" vertex="1" parent="1">
          <mxGeometry x="511.5" y="435" width="200" height="80" as="geometry" />
        </mxCell>
        <mxCell id="SQr1-za56z7L4GqFjBIs-43" style="rounded=0;orthogonalLoop=1;jettySize=auto;html=1;endArrow=none;startFill=0;" edge="1" source="SQr1-za56z7L4GqFjBIs-48" target="SQr1-za56z7L4GqFjBIs-49" parent="1">
          <mxGeometry relative="1" as="geometry" />
        </mxCell>
        <mxCell id="SQr1-za56z7L4GqFjBIs-44" style="rounded=0;orthogonalLoop=1;jettySize=auto;html=1;endArrow=none;startFill=0;" edge="1" source="SQr1-za56z7L4GqFjBIs-48" target="SQr1-za56z7L4GqFjBIs-50" parent="1">
          <mxGeometry relative="1" as="geometry" />
        </mxCell>
        <mxCell id="SQr1-za56z7L4GqFjBIs-45" style="rounded=0;orthogonalLoop=1;jettySize=auto;html=1;strokeColor=default;endArrow=none;startFill=0;" edge="1" source="SQr1-za56z7L4GqFjBIs-48" target="SQr1-za56z7L4GqFjBIs-51" parent="1">
          <mxGeometry relative="1" as="geometry" />
        </mxCell>
        <mxCell id="SQr1-za56z7L4GqFjBIs-46" style="rounded=0;orthogonalLoop=1;jettySize=auto;html=1;endArrow=none;startFill=0;" edge="1" source="SQr1-za56z7L4GqFjBIs-48" target="SQr1-za56z7L4GqFjBIs-52" parent="1">
          <mxGeometry relative="1" as="geometry" />
        </mxCell>
        <mxCell id="SQr1-za56z7L4GqFjBIs-47" style="rounded=0;orthogonalLoop=1;jettySize=auto;html=1;endArrow=none;startFill=0;" edge="1" source="SQr1-za56z7L4GqFjBIs-48" target="SQr1-za56z7L4GqFjBIs-53" parent="1">
          <mxGeometry relative="1" as="geometry" />
        </mxCell>
        <mxCell id="SQr1-za56z7L4GqFjBIs-48" value="Conta_League" style="rounded=0;whiteSpace=wrap;html=1;fillColor=#dae8fc;strokeColor=#6c8ebf;" vertex="1" parent="1">
          <mxGeometry x="261.5" y="690" width="120" height="60" as="geometry" />
        </mxCell>
        <mxCell id="SQr1-za56z7L4GqFjBIs-49" value="ID_usuario: INT &amp;lt;&amp;lt;FK&amp;gt;&amp;gt;" style="ellipse;whiteSpace=wrap;html=1;fillColor=#e1d5e7;strokeColor=#9673a6;rounded=0;" vertex="1" parent="1">
          <mxGeometry x="381.5" y="790" width="158.5" height="40" as="geometry" />
        </mxCell>
        <mxCell id="SQr1-za56z7L4GqFjBIs-50" value="ID_Conta: INT" style="ellipse;whiteSpace=wrap;html=1;fillColor=#e1d5e7;strokeColor=#9673a6;rounded=0;" vertex="1" parent="1">
          <mxGeometry x="31.5" y="670" width="150" height="40" as="geometry" />
        </mxCell>
        <mxCell id="SQr1-za56z7L4GqFjBIs-51" value="Nome: VARCHAR(255)" style="ellipse;whiteSpace=wrap;html=1;fillColor=#e1d5e7;strokeColor=#9673a6;rounded=0;" vertex="1" parent="1">
          <mxGeometry x="61.5" y="740" width="150" height="40" as="geometry" />
        </mxCell>
        <mxCell id="SQr1-za56z7L4GqFjBIs-52" value="ID_Único de conta: VARCHAR(45)" style="ellipse;whiteSpace=wrap;html=1;fillColor=#e1d5e7;strokeColor=#9673a6;rounded=0;" vertex="1" parent="1">
          <mxGeometry x="-8.5" y="800" width="250" height="40" as="geometry" />
        </mxCell>
        <mxCell id="SQr1-za56z7L4GqFjBIs-53" value="ID_RIOT: VARCHAR(255)" style="ellipse;whiteSpace=wrap;html=1;fillColor=#e1d5e7;strokeColor=#9673a6;rounded=0;" vertex="1" parent="1">
          <mxGeometry x="221.5" y="770" width="150" height="40" as="geometry" />
        </mxCell>
        <mxCell id="SQr1-za56z7L4GqFjBIs-54" value="pode ter" style="rhombus;whiteSpace=wrap;html=1;fillColor=#d5e8d4;strokeColor=#82b366;" vertex="1" parent="1">
          <mxGeometry x="221.5" y="504.5" width="200" height="80" as="geometry" />
        </mxCell>
        <mxCell id="SQr1-za56z7L4GqFjBIs-55" value="" style="endArrow=none;html=1;rounded=0;exitX=0.25;exitY=1;exitDx=0;exitDy=0;entryX=0.5;entryY=0;entryDx=0;entryDy=0;edgeStyle=orthogonalEdgeStyle;startArrow=ERone;startFill=0;endFill=0;" edge="1" parent="1" source="SQr1-za56z7L4GqFjBIs-1" target="SQr1-za56z7L4GqFjBIs-54">
          <mxGeometry relative="1" as="geometry">
            <mxPoint x="420" y="410" as="sourcePoint" />
            <mxPoint x="522" y="485" as="targetPoint" />
            <Array as="points">
              <mxPoint x="380" y="485" />
              <mxPoint x="322" y="485" />
            </Array>
          </mxGeometry>
        </mxCell>
        <mxCell id="SQr1-za56z7L4GqFjBIs-56" value="" style="endArrow=none;html=1;rounded=0;exitX=0.5;exitY=0;exitDx=0;exitDy=0;entryX=0.5;entryY=1;entryDx=0;entryDy=0;edgeStyle=orthogonalEdgeStyle;startArrow=ERoneToMany;startFill=0;endFill=0;" edge="1" parent="1" source="SQr1-za56z7L4GqFjBIs-48" target="SQr1-za56z7L4GqFjBIs-54">
          <mxGeometry relative="1" as="geometry">
            <mxPoint x="390" y="410" as="sourcePoint" />
            <mxPoint x="332" y="515" as="targetPoint" />
            <Array as="points">
              <mxPoint x="322" y="685" />
              <mxPoint x="322" y="600" />
              <mxPoint x="322" y="584" />
            </Array>
          </mxGeometry>
        </mxCell>
        <mxCell id="SQr1-za56z7L4GqFjBIs-57" value="" style="rounded=0;orthogonalLoop=1;jettySize=auto;html=1;endArrow=none;startFill=0;" edge="1" source="SQr1-za56z7L4GqFjBIs-69" target="SQr1-za56z7L4GqFjBIs-63" parent="1">
          <mxGeometry relative="1" as="geometry" />
        </mxCell>
        <mxCell id="SQr1-za56z7L4GqFjBIs-58" style="rounded=0;orthogonalLoop=1;jettySize=auto;html=1;endArrow=none;startFill=0;" edge="1" source="SQr1-za56z7L4GqFjBIs-69" target="SQr1-za56z7L4GqFjBIs-64" parent="1">
          <mxGeometry relative="1" as="geometry" />
        </mxCell>
        <mxCell id="SQr1-za56z7L4GqFjBIs-59" style="rounded=0;orthogonalLoop=1;jettySize=auto;html=1;endArrow=none;startFill=0;" edge="1" source="SQr1-za56z7L4GqFjBIs-69" target="SQr1-za56z7L4GqFjBIs-65" parent="1">
          <mxGeometry relative="1" as="geometry" />
        </mxCell>
        <mxCell id="SQr1-za56z7L4GqFjBIs-60" style="rounded=0;orthogonalLoop=1;jettySize=auto;html=1;strokeColor=default;endArrow=none;startFill=0;" edge="1" source="SQr1-za56z7L4GqFjBIs-69" target="SQr1-za56z7L4GqFjBIs-66" parent="1">
          <mxGeometry relative="1" as="geometry" />
        </mxCell>
        <mxCell id="SQr1-za56z7L4GqFjBIs-61" style="rounded=0;orthogonalLoop=1;jettySize=auto;html=1;endArrow=none;startFill=0;" edge="1" source="SQr1-za56z7L4GqFjBIs-69" target="SQr1-za56z7L4GqFjBIs-67" parent="1">
          <mxGeometry relative="1" as="geometry" />
        </mxCell>
        <mxCell id="SQr1-za56z7L4GqFjBIs-62" style="rounded=0;orthogonalLoop=1;jettySize=auto;html=1;endArrow=none;startFill=0;" edge="1" source="SQr1-za56z7L4GqFjBIs-69" target="SQr1-za56z7L4GqFjBIs-68" parent="1">
          <mxGeometry relative="1" as="geometry" />
        </mxCell>
        <mxCell id="SQr1-za56z7L4GqFjBIs-63" value="ID_Time: INT &amp;lt;&amp;lt;FK&amp;gt;&amp;gt;" style="ellipse;whiteSpace=wrap;html=1;fillColor=#e1d5e7;strokeColor=#9673a6;rounded=0;" vertex="1" parent="1">
          <mxGeometry x="1220" y="480" width="120" height="40" as="geometry" />
        </mxCell>
        <mxCell id="SQr1-za56z7L4GqFjBIs-65" value="Data: DATE" style="ellipse;whiteSpace=wrap;html=1;fillColor=#e1d5e7;strokeColor=#9673a6;rounded=0;" vertex="1" parent="1">
          <mxGeometry x="1005.5" y="710" width="150" height="40" as="geometry" />
        </mxCell>
        <mxCell id="SQr1-za56z7L4GqFjBIs-66" value="Resultado: VARCHAR(20)" style="ellipse;whiteSpace=wrap;html=1;fillColor=#e1d5e7;strokeColor=#9673a6;rounded=0;" vertex="1" parent="1">
          <mxGeometry x="1255.5" y="615" width="150" height="40" as="geometry" />
        </mxCell>
        <mxCell id="SQr1-za56z7L4GqFjBIs-67" value="Tipo de Treino: VARCHAR(45)" style="ellipse;whiteSpace=wrap;html=1;fillColor=#e1d5e7;strokeColor=#9673a6;rounded=0;" vertex="1" parent="1">
          <mxGeometry x="1255.5" y="550" width="190" height="40" as="geometry" />
        </mxCell>
        <mxCell id="SQr1-za56z7L4GqFjBIs-68" value="ID_Treino: INT &amp;lt;&amp;lt;PK&amp;gt;&amp;gt;" style="ellipse;whiteSpace=wrap;html=1;fillColor=#e1d5e7;strokeColor=#9673a6;rounded=0;" vertex="1" parent="1">
          <mxGeometry x="900" y="665" width="150" height="40" as="geometry" />
        </mxCell>
        <mxCell id="SQr1-za56z7L4GqFjBIs-69" value="Treino" style="rounded=0;whiteSpace=wrap;html=1;fillColor=#dae8fc;strokeColor=#6c8ebf;" vertex="1" parent="1">
          <mxGeometry x="1074" y="565" width="120" height="60" as="geometry" />
        </mxCell>
        <mxCell id="SQr1-za56z7L4GqFjBIs-70" value="" style="rounded=0;orthogonalLoop=1;jettySize=auto;html=1;strokeColor=default;endArrow=none;startFill=0;" edge="1" parent="1" source="SQr1-za56z7L4GqFjBIs-69" target="SQr1-za56z7L4GqFjBIs-64">
          <mxGeometry relative="1" as="geometry">
            <mxPoint x="1153.5" y="625" as="sourcePoint" />
            <mxPoint x="1327.5" y="900" as="targetPoint" />
          </mxGeometry>
        </mxCell>
        <mxCell id="SQr1-za56z7L4GqFjBIs-64" value="Adversário: VARCHAR(255)" style="ellipse;whiteSpace=wrap;html=1;fillColor=#e1d5e7;strokeColor=#9673a6;rounded=0;" vertex="1" parent="1">
          <mxGeometry x="1195.5" y="705" width="210" height="40" as="geometry" />
        </mxCell>
        <mxCell id="SQr1-za56z7L4GqFjBIs-72" value="participa de" style="rhombus;whiteSpace=wrap;html=1;fillColor=#d5e8d4;strokeColor=#82b366;" vertex="1" parent="1">
          <mxGeometry x="1034" y="400" width="200" height="80" as="geometry" />
        </mxCell>
        <mxCell id="SQr1-za56z7L4GqFjBIs-73" value="" style="endArrow=none;html=1;rounded=0;exitX=1;exitY=0.5;exitDx=0;exitDy=0;entryX=0;entryY=0.5;entryDx=0;entryDy=0;edgeStyle=orthogonalEdgeStyle;startArrow=ERone;startFill=0;endFill=0;" edge="1" parent="1" source="SQr1-za56z7L4GqFjBIs-18" target="SQr1-za56z7L4GqFjBIs-72">
          <mxGeometry relative="1" as="geometry">
            <mxPoint x="420" y="410" as="sourcePoint" />
            <mxPoint x="522" y="485" as="targetPoint" />
            <Array as="points">
              <mxPoint x="940" y="370" />
              <mxPoint x="940" y="440" />
            </Array>
          </mxGeometry>
        </mxCell>
        <mxCell id="SQr1-za56z7L4GqFjBIs-74" value="" style="endArrow=none;html=1;rounded=0;exitX=0.5;exitY=0;exitDx=0;exitDy=0;entryX=0.5;entryY=1;entryDx=0;entryDy=0;edgeStyle=orthogonalEdgeStyle;startArrow=ERoneToMany;startFill=0;endFill=0;" edge="1" parent="1" source="SQr1-za56z7L4GqFjBIs-69" target="SQr1-za56z7L4GqFjBIs-72">
          <mxGeometry relative="1" as="geometry">
            <mxPoint x="885" y="380" as="sourcePoint" />
            <mxPoint x="1044" y="450" as="targetPoint" />
            <Array as="points">
              <mxPoint x="1134" y="510" />
              <mxPoint x="1134" y="510" />
            </Array>
          </mxGeometry>
        </mxCell>
        <mxCell id="SQr1-za56z7L4GqFjBIs-75" value="Treino_Conta" style="rounded=0;whiteSpace=wrap;html=1;fillColor=#dae8fc;strokeColor=#6c8ebf;" vertex="1" parent="1">
          <mxGeometry x="660" y="585" width="120" height="60" as="geometry" />
        </mxCell>
        <mxCell id="SQr1-za56z7L4GqFjBIs-76" value="" style="endArrow=ERone;html=1;rounded=0;exitX=0;exitY=0.5;exitDx=0;exitDy=0;entryX=1;entryY=0.5;entryDx=0;entryDy=0;edgeStyle=orthogonalEdgeStyle;startArrow=ERmany;startFill=0;endFill=0;" edge="1" parent="1" source="SQr1-za56z7L4GqFjBIs-75" target="SQr1-za56z7L4GqFjBIs-48">
          <mxGeometry relative="1" as="geometry">
            <mxPoint x="332" y="700" as="sourcePoint" />
            <mxPoint x="332" y="595" as="targetPoint" />
            <Array as="points">
              <mxPoint x="560" y="615" />
              <mxPoint x="560" y="720" />
            </Array>
          </mxGeometry>
        </mxCell>
        <mxCell id="SQr1-za56z7L4GqFjBIs-77" value="" style="endArrow=ERone;html=1;rounded=0;exitX=1;exitY=0.5;exitDx=0;exitDy=0;entryX=0;entryY=0.5;entryDx=0;entryDy=0;edgeStyle=orthogonalEdgeStyle;startArrow=ERmany;startFill=0;endFill=0;" edge="1" parent="1" source="SQr1-za56z7L4GqFjBIs-75" target="SQr1-za56z7L4GqFjBIs-69">
          <mxGeometry relative="1" as="geometry">
            <mxPoint x="680" y="665" as="sourcePoint" />
            <mxPoint x="392" y="730" as="targetPoint" />
            <Array as="points">
              <mxPoint x="930" y="615" />
              <mxPoint x="930" y="595" />
            </Array>
          </mxGeometry>
        </mxCell>
        <mxCell id="SQr1-za56z7L4GqFjBIs-78" value="Campeão" style="rounded=0;whiteSpace=wrap;html=1;fillColor=#dae8fc;strokeColor=#6c8ebf;" vertex="1" parent="1">
          <mxGeometry x="660" y="780" width="120" height="60" as="geometry" />
        </mxCell>
        <mxCell id="SQr1-za56z7L4GqFjBIs-79" value="Imagem_url: VARCHAR(255)" style="ellipse;whiteSpace=wrap;html=1;fillColor=#e1d5e7;strokeColor=#9673a6;rounded=0;" vertex="1" parent="1">
          <mxGeometry x="781.5" y="850" width="170" height="40" as="geometry" />
        </mxCell>
        <mxCell id="SQr1-za56z7L4GqFjBIs-80" value="ID_campeão: INT&amp;nbsp;&amp;lt;&amp;lt;pK&amp;gt;&amp;gt;" style="ellipse;whiteSpace=wrap;html=1;fillColor=#e1d5e7;strokeColor=#9673a6;rounded=0;" vertex="1" parent="1">
          <mxGeometry x="530" y="850" width="150" height="40" as="geometry" />
        </mxCell>
        <mxCell id="SQr1-za56z7L4GqFjBIs-81" value="Nome: VARCHAR(255)" style="ellipse;whiteSpace=wrap;html=1;fillColor=#e1d5e7;strokeColor=#9673a6;rounded=0;" vertex="1" parent="1">
          <mxGeometry x="645" y="890" width="150" height="40" as="geometry" />
        </mxCell>
        <mxCell id="SQr1-za56z7L4GqFjBIs-82" value="ID_Conta_League: INT &amp;lt;&amp;lt;FK&amp;gt;&amp;gt;" style="ellipse;whiteSpace=wrap;html=1;fillColor=#e1d5e7;strokeColor=#9673a6;rounded=0;" vertex="1" parent="1">
          <mxGeometry x="800" y="550" width="180" height="40" as="geometry" />
        </mxCell>
        <mxCell id="SQr1-za56z7L4GqFjBIs-85" value="ID_Time: INT &amp;lt;&amp;lt;FK&amp;gt;&amp;gt;" style="ellipse;whiteSpace=wrap;html=1;fillColor=#e1d5e7;strokeColor=#9673a6;rounded=0;" vertex="1" parent="1">
          <mxGeometry x="460" y="275" width="150" height="40" as="geometry" />
        </mxCell>
        <mxCell id="SQr1-za56z7L4GqFjBIs-86" value="" style="rounded=0;orthogonalLoop=1;jettySize=auto;html=1;endArrow=none;startFill=0;" edge="1" parent="1" source="SQr1-za56z7L4GqFjBIs-1" target="SQr1-za56z7L4GqFjBIs-85">
          <mxGeometry relative="1" as="geometry">
            <mxPoint x="445" y="350" as="sourcePoint" />
            <mxPoint x="554" y="219" as="targetPoint" />
          </mxGeometry>
        </mxCell>
        <mxCell id="SQr1-za56z7L4GqFjBIs-87" value="ID_Treino: INT &amp;lt;&amp;lt;FK&amp;gt;&amp;gt;" style="ellipse;whiteSpace=wrap;html=1;fillColor=#e1d5e7;strokeColor=#9673a6;rounded=0;" vertex="1" parent="1">
          <mxGeometry x="639" y="515" width="155" height="40" as="geometry" />
        </mxCell>
        <mxCell id="SQr1-za56z7L4GqFjBIs-88" value="ID_Campeao: INT &amp;lt;&amp;lt;FK&amp;gt;&amp;gt;" style="ellipse;whiteSpace=wrap;html=1;fillColor=#e1d5e7;strokeColor=#9673a6;rounded=0;" vertex="1" parent="1">
          <mxGeometry x="478.5" y="545" width="161.5" height="40" as="geometry" />
        </mxCell>
        <mxCell id="SQr1-za56z7L4GqFjBIs-89" style="rounded=0;orthogonalLoop=1;jettySize=auto;html=1;endArrow=none;startFill=0;" edge="1" parent="1" source="SQr1-za56z7L4GqFjBIs-75" target="SQr1-za56z7L4GqFjBIs-88">
          <mxGeometry relative="1" as="geometry">
            <mxPoint x="378" y="760" as="sourcePoint" />
            <mxPoint x="442" y="801" as="targetPoint" />
          </mxGeometry>
        </mxCell>
        <mxCell id="SQr1-za56z7L4GqFjBIs-90" style="rounded=0;orthogonalLoop=1;jettySize=auto;html=1;endArrow=none;startFill=0;" edge="1" parent="1" source="SQr1-za56z7L4GqFjBIs-75" target="SQr1-za56z7L4GqFjBIs-87">
          <mxGeometry relative="1" as="geometry">
            <mxPoint x="670" y="606" as="sourcePoint" />
            <mxPoint x="619" y="591" as="targetPoint" />
          </mxGeometry>
        </mxCell>
        <mxCell id="SQr1-za56z7L4GqFjBIs-91" style="rounded=0;orthogonalLoop=1;jettySize=auto;html=1;endArrow=none;startFill=0;" edge="1" parent="1" source="SQr1-za56z7L4GqFjBIs-75" target="SQr1-za56z7L4GqFjBIs-82">
          <mxGeometry relative="1" as="geometry">
            <mxPoint x="729" y="595" as="sourcePoint" />
            <mxPoint x="727" y="565" as="targetPoint" />
          </mxGeometry>
        </mxCell>
        <mxCell id="SQr1-za56z7L4GqFjBIs-92" style="rounded=0;orthogonalLoop=1;jettySize=auto;html=1;endArrow=none;startFill=0;" edge="1" parent="1" source="SQr1-za56z7L4GqFjBIs-78" target="SQr1-za56z7L4GqFjBIs-80">
          <mxGeometry relative="1" as="geometry">
            <mxPoint x="670" y="606" as="sourcePoint" />
            <mxPoint x="619" y="591" as="targetPoint" />
          </mxGeometry>
        </mxCell>
        <mxCell id="SQr1-za56z7L4GqFjBIs-93" style="rounded=0;orthogonalLoop=1;jettySize=auto;html=1;endArrow=none;startFill=0;" edge="1" parent="1" source="SQr1-za56z7L4GqFjBIs-78" target="SQr1-za56z7L4GqFjBIs-81">
          <mxGeometry relative="1" as="geometry">
            <mxPoint x="698" y="850" as="sourcePoint" />
            <mxPoint x="623" y="911" as="targetPoint" />
          </mxGeometry>
        </mxCell>
        <mxCell id="SQr1-za56z7L4GqFjBIs-94" style="rounded=0;orthogonalLoop=1;jettySize=auto;html=1;endArrow=none;startFill=0;" edge="1" parent="1" source="SQr1-za56z7L4GqFjBIs-78" target="SQr1-za56z7L4GqFjBIs-79">
          <mxGeometry relative="1" as="geometry">
            <mxPoint x="734" y="850" as="sourcePoint" />
            <mxPoint x="730" y="950" as="targetPoint" />
          </mxGeometry>
        </mxCell>
        <mxCell id="SQr1-za56z7L4GqFjBIs-95" value="" style="endArrow=ERone;html=1;rounded=0;edgeStyle=orthogonalEdgeStyle;startArrow=ERmany;startFill=0;endFill=0;exitX=0.5;exitY=1;exitDx=0;exitDy=0;entryX=0.5;entryY=0;entryDx=0;entryDy=0;" edge="1" parent="1" source="SQr1-za56z7L4GqFjBIs-75" target="SQr1-za56z7L4GqFjBIs-78">
          <mxGeometry relative="1" as="geometry">
            <mxPoint x="670" y="625" as="sourcePoint" />
            <mxPoint x="392" y="730" as="targetPoint" />
            <Array as="points">
              <mxPoint x="720" y="750" />
              <mxPoint x="720" y="750" />
            </Array>
          </mxGeometry>
        </mxCell>
      </root>
    </mxGraphModel>
  </diagram>
</mxfile>
